<svg xmlns="http://www.w3.org/2000/svg" width="375" height="34" viewBox="0 0 375 34" fill="none">
<path d="M-6.5047 -31.6109L39.9379 23.4518L-27.7982 14.4971L-6.5047 -31.6109Z" fill="#d80606"/>
<path d="M39.4508 -52.4834L128.81 -42.2559L130.417 16.5489L39.4508 -52.4834Z" fill="#d80606"/>
<path d="M39.4513 -52.4829L130.417 16.5489L75.4486 13.0973L39.4513 -52.4829Z" fill="#0e0e0f"/>
<path d="M176.133 -27.2196L178.739 33.8682L130.417 16.5486L176.133 -27.2196Z" fill="#d80606"/>
<path d="M75.4488 13.0971L39.938 23.4519L-6.50488 -31.6114L39.4509 -52.4832L75.4488 13.0971Z" fill="#00c82e"/>
<path d="M218.901 -35.4372L196.982 26.6207L178.738 33.869L176.132 -27.2188L218.901 -35.4372Z" fill="#0e0e0f"/>
<path d="M392.003 -32.6949L387.945 19.3575L362.102 13.7962L351.762 -27.5739L392.003 -32.6949Z" fill="#0e0e0f"/>
<path d="M128.809 -42.2566L176.132 -27.2205L130.417 16.5486L128.809 -42.2566Z" fill="#00c82e"/>
<path d="M320.162 -25.8798L351.76 -27.574L362.1 13.796L313.217 22.3438L320.162 -25.8798Z" fill="#00c82e"/>
<path d="M252.996 -20.7372L239.098 26.8202L196.983 26.6192L218.902 -35.4387L252.996 -20.7372Z" fill="#00c82e"/>
<path d="M286.735 -33.9604L239.098 26.8204L252.996 -20.737L286.735 -33.9604Z" fill="#d80606"/>
<path d="M286.735 -33.9604L271.725 11.8596L239.098 26.8204L286.735 -33.9604Z" fill="#00c82e"/>
<path d="M320.163 -25.8798L313.219 22.3438L271.726 11.8599L286.737 -33.9601L320.163 -25.8798Z" fill="#d80606"/>
</svg>