<svg xmlns="http://www.w3.org/2000/svg" width="375" height="43" viewBox="0 0 375 43" fill="none">
<g clip-path="url(#clip0_373_2254)">
<path d="M100.856 64.8906L147.509 10.9101L79.5808 19.2808L100.856 64.8906Z" fill="#29af35"/>
<path d="M146.904 85.4959L236.056 75.4213L237.835 17.2789L146.904 85.4959Z" fill="#111110"/>
<path d="M-52.8569 79.4854L1.5321 3.85015L-59.1678 22.5414L-52.8569 79.4854Z" fill="#29af35"/>
<path d="M50.0842 62.4803L100.855 64.8905L79.5799 19.2806L37.415 20.7363L50.0842 62.4803Z" fill="#111110"/>
<path d="M146.904 85.4959L237.835 17.2789L182.503 21.1529L146.904 85.4959Z" fill="#29af35"/>
<path d="M283.339 60.5473L285.943 0.119496L237.835 17.2786L283.339 60.5473Z" fill="#29af35"/>
<path d="M-52.8569 79.4854L50.0857 62.4807L37.4164 20.7366L1.53212 3.85053L-52.8569 79.4854Z" fill="#ff0000"/>
<path d="M182.503 21.1527L147.509 10.9098L100.856 64.8905L146.903 85.4949L182.503 21.1527Z" fill="#ff0000"/>
<path d="M326.071 68.6762L304.17 7.28878L285.942 0.118797L283.338 60.5466L326.071 68.6762Z" fill="#ff0000"/>
<path d="M236.057 75.4214L283.34 60.5478L237.836 17.2791L236.057 75.4214Z" fill="#ff0000"/>
<path d="M360.135 54.1339L346.249 7.09022L304.17 7.28904L326.07 68.6765L360.135 54.1339Z" fill="#ff0000"/>
<path d="M393.847 67.2147L346.25 7.09052L360.136 54.1342L393.847 67.2147Z" fill="#ff0000"/>
<path d="M393.847 67.2147L378.849 21.8897L346.25 7.09052L393.847 67.2147Z" fill="#29af35"/>
</g>
<defs fill="#000000">
<clipPath id="clip0_373_2254" fill="#000000">
<rect width="375" height="43" fill="white"/>
</clipPath>
</defs>
</svg>